# xmcd
#
# Track frame offsets:
# 150
# 13443
# 27046
# 41398
# 54256
# 69439
# 91801
# 109513
# 128186
# 151883
# 173959
# 186487
# 209175
# 224841
# 244241
# 266172
# 282019
# 294537
# 308953
#
# Disc length: 4399 seconds
#
#
# Revision: 0
# Processed by: cddbd v1.5.1PL0 Copyright (c) Steve Scherf et al.
# Submitted via: FreeRIP 2.60 
#
DISCID=22112d13
DTITLE=Various Artist - Best of the Green Mountain Blues - Volume 3 Disk 2
DYEAR=1900
DGENRE=blues
TTITLE0=The Unknown Blues Revue - Three Times
TTITLE1=East Coast Muscle - Case Dismissed
TTITLE2=Derrick Semler - Room 221
TTITLE3=Willie Edwards - True What They Say
TTITLE4=The Nerback Brothers - Yesterday
TTITLE5=The Jalapeno Brothers - Breakfast In Bed
TTITLE6=Mick Lee - No Mo' Blues
TTITLE7=Andy Shapiro - Andy's Groove
TTITLE8=Rachel Bissex - Sinkin' In
TTITLE9=Chip Wilson - Inappropriate Woman
TTITLE10=Texas Twister - Grey
TTITLE11=Dave Keller Blues Band - West Helena Blues
TTITLE12=The Hugh Pool Band - What I Did
TTITLE13=Meaker/Kinzie and Hersey - Wild Dog Moan
TTITLE14=The Red Neck Aliens - Howlin' At The Moon
TTITLE15=Jenni Johnson - Red Beans
TTITLE16=Quadra - Bye Bye Blues
TTITLE17=John Savlov - Dead Man's Blues
TTITLE18=The N-Zones - Mystery Blues
EXTD=Proceeds go to Camp Ta-Kum-Ta, a camp for children battleing cancer.\n
EXTT0=
EXTT1=
EXTT2=
EXTT3=
EXTT4=
EXTT5=
EXTT6=
EXTT7=
EXTT8=
EXTT9=
EXTT10=
EXTT11=
EXTT12=
EXTT13=
EXTT14=
EXTT15=
EXTT16=
EXTT17=
EXTT18=
PLAYORDER=
